<svg width="48" height="48" viewBox="0 0 48 48" fill="none" xmlns="http://www.w3.org/2000/svg">
<g id="ads_click">
<mask id="mask0_174_36" style="mask-type:alpha" maskUnits="userSpaceOnUse" x="0" y="0" width="48" height="48">
<rect id="Bounding box" width="48" height="48" fill="#D9D9D9"/>
</mask>
<g mask="url(#mask0_174_36)">
<path id="ads_click_2" d="M23.4 36C20.2 35.8333 17.5 34.6 15.3 32.3C13.1 30 12 27.2333 12 24C12 20.6667 13.1667 17.8333 15.5 15.5C17.8333 13.1667 20.6667 12 24 12C27.2333 12 30 13.1 32.3 15.3C34.6 17.5 35.8333 20.2 36 23.4L31.8 22.15C31.3667 20.35 30.4333 18.875 29 17.725C27.5667 16.575 25.9 16 24 16C21.8 16 19.9167 16.7833 18.35 18.35C16.7833 19.9167 16 21.8 16 24C16 25.9 16.575 27.5667 17.725 29C18.875 30.4333 20.35 31.3667 22.15 31.8L23.4 36ZM25.8 43.9C25.5 43.9667 25.2 44 24.9 44H24C21.2333 44 18.6333 43.475 16.2 42.425C13.7667 41.375 11.65 39.95 9.85 38.15C8.05 36.35 6.625 34.2333 5.575 31.8C4.525 29.3667 4 26.7667 4 24C4 21.2333 4.525 18.6333 5.575 16.2C6.625 13.7667 8.05 11.65 9.85 9.85C11.65 8.05 13.7667 6.625 16.2 5.575C18.6333 4.525 21.2333 4 24 4C26.7667 4 29.3667 4.525 31.8 5.575C34.2333 6.625 36.35 8.05 38.15 9.85C39.95 11.65 41.375 13.7667 42.425 16.2C43.475 18.6333 44 21.2333 44 24V24.9C44 25.2 43.9667 25.5 43.9 25.8L40 24.6V24C40 19.5333 38.45 15.75 35.35 12.65C32.25 9.55 28.4667 8 24 8C19.5333 8 15.75 9.55 12.65 12.65C9.55 15.75 8 19.5333 8 24C8 28.4667 9.55 32.25 12.65 35.35C15.75 38.45 19.5333 40 24 40H24.6L25.8 43.9ZM39.1 43L32.5 36.45L31 41C30.8333 41.4667 30.5167 41.6917 30.05 41.675C29.5833 41.6583 29.2667 41.4167 29.1 40.95L24.55 25.8C24.4167 25.4333 24.5 25.1 24.8 24.8C25.1 24.5 25.4333 24.4167 25.8 24.55L40.95 29.1C41.4167 29.2667 41.6583 29.5833 41.675 30.05C41.6917 30.5167 41.4667 30.8333 41 31L36.45 32.5L43.05 39.1C43.6167 39.6667 43.9 40.3167 43.9 41.05C43.9 41.7833 43.6167 42.4333 43.05 43C42.4833 43.5667 41.825 43.85 41.075 43.85C40.325 43.85 39.6667 43.5667 39.1 43Z" fill="#3E885B"/>
</g>
</g>
</svg>
