<?xml version="1.0" standalone="no"?>
<!DOCTYPE svg PUBLIC "-//W3C//DTD SVG 20010904//EN"
 "http://www.w3.org/TR/2001/REC-SVG-20010904/DTD/svg10.dtd">
<svg version="1.0" xmlns="http://www.w3.org/2000/svg"
 width="868.000000pt" height="706.000000pt" viewBox="0 0 868.000000 706.000000"
 preserveAspectRatio="xMidYMid meet">

<g transform="translate(0.000000,706.000000) scale(0.100000,-0.100000)"
fill="#001c7b" stroke="none">
<path fill="#001c7b" d="M134 5509 c-58 -37 -87 -69 -114 -125 -20 -40 -20 -67 -20 -2231 0
-1205 3 -2199 6 -2208 5 -13 11 -9 30 19 13 19 24 37 24 40 0 3 80 126 177
275 98 148 227 345 287 438 61 92 147 224 191 293 74 112 211 324 333 515 25
39 49 72 54 73 4 2 8 10 8 18 0 8 5 14 10 14 6 0 10 5 10 11 0 6 22 43 49 82
27 40 79 119 116 177 142 220 201 311 320 491 67 102 128 195 134 208 16 30
283 436 319 486 17 22 33 50 36 61 4 12 15 29 26 39 11 10 20 22 20 27 0 5 9
18 20 30 11 12 20 28 20 35 0 7 8 13 18 13 12 0 24 -19 41 -62 13 -35 32 -81
42 -102 11 -22 19 -46 19 -53 0 -7 5 -13 10 -13 6 0 10 -9 10 -20 0 -11 4 -28
9 -38 37 -74 51 -106 51 -118 0 -8 5 -14 10 -14 6 0 10 -9 10 -19 0 -11 5 -23
10 -26 6 -3 10 -13 10 -20 0 -8 11 -38 24 -67 13 -29 39 -89 56 -133 17 -44
41 -100 52 -125 29 -65 42 -94 83 -195 20 -49 73 -175 117 -280 98 -233 99
-235 108 -260 11 -29 34 -81 64 -148 14 -32 26 -61 26 -65 0 -14 51 -112 58
-112 4 0 20 26 37 58 16 31 47 85 67 119 21 35 38 67 38 72 0 5 3 11 8 13 4 2
18 26 32 53 13 28 34 66 46 85 32 54 114 198 149 265 45 84 118 215 137 245 8
14 33 59 55 100 22 41 50 93 63 115 47 80 98 174 111 204 8 17 17 31 21 31 5
0 8 9 8 20 0 11 4 20 9 20 5 0 11 8 14 18 4 9 18 37 33 62 27 44 62 107 114
205 37 70 54 99 60 105 3 3 15 23 27 45 11 22 31 58 43 80 13 22 38 69 58 105
19 36 63 115 97 175 63 113 94 167 160 290 21 39 45 81 55 95 9 14 27 48 41
75 13 28 25 52 27 54 6 10 29 -26 41 -64 10 -34 51 -143 81 -220 4 -11 22 -60
40 -110 70 -197 100 -277 121 -317 5 -10 9 -27 9 -37 0 -11 4 -22 9 -25 5 -3
11 -16 14 -28 5 -22 72 -209 152 -423 21 -55 52 -142 70 -193 18 -51 35 -95
39 -99 3 -3 6 -12 6 -20 0 -7 9 -32 19 -56 11 -23 29 -71 41 -107 12 -36 26
-76 32 -90 6 -14 15 -36 21 -50 5 -14 13 -33 18 -42 5 -10 9 -26 9 -36 0 -27
23 -54 40 -47 8 3 25 20 37 38 13 17 33 44 45 58 13 15 33 39 45 55 43 55 68
88 118 148 28 34 68 84 90 112 22 29 130 164 240 300 110 137 205 256 212 264
6 8 38 47 70 87 32 39 78 97 103 128 25 31 54 67 65 79 11 11 32 37 45 56 14
19 32 44 41 55 9 11 41 49 71 85 30 36 64 80 77 98 13 19 35 46 49 60 13 15
36 43 51 62 14 19 28 37 31 40 3 3 21 25 40 50 19 25 39 50 45 56 5 6 21 26
35 44 14 18 33 42 44 54 10 11 30 37 45 56 14 19 32 41 39 48 7 8 25 30 39 50
15 21 52 66 81 102 102 124 132 164 132 178 0 9 -859 12 -3498 12 l-3498 0
-50 -31z"/>
<path fill="#001c7b" d="M7603 4972 c-13 -15 -23 -33 -23 -40 0 -7 -8 -24 -17 -38 -29 -44
-53 -88 -59 -106 -4 -10 -10 -18 -15 -18 -5 0 -9 -7 -9 -15 0 -8 -9 -30 -20
-50 -11 -19 -30 -52 -41 -72 -12 -21 -34 -60 -49 -88 -14 -27 -38 -70 -52 -95
-14 -25 -47 -85 -73 -135 -27 -49 -58 -106 -70 -125 -12 -19 -41 -73 -65 -120
-24 -47 -56 -106 -71 -131 -15 -25 -48 -86 -74 -135 -60 -112 -85 -157 -118
-214 -15 -25 -39 -70 -54 -100 -15 -30 -30 -57 -33 -60 -3 -3 -15 -25 -28 -50
-38 -73 -67 -125 -72 -130 -3 -3 -16 -27 -30 -55 -14 -27 -27 -52 -30 -55 -3
-3 -12 -18 -20 -35 -18 -34 -133 -246 -212 -390 -30 -55 -72 -131 -93 -170
-21 -38 -51 -92 -67 -118 -15 -26 -28 -54 -28 -62 0 -8 -4 -15 -8 -15 -5 0
-14 -16 -22 -35 -8 -19 -16 -35 -19 -35 -4 0 -12 -15 -20 -33 -8 -17 -17 -34
-20 -37 -3 -3 -26 -43 -50 -90 -25 -47 -53 -101 -64 -120 -11 -19 -32 -57 -47
-85 -15 -27 -37 -68 -50 -90 -13 -22 -46 -83 -73 -135 -27 -52 -64 -120 -82
-150 -18 -30 -54 -95 -80 -145 -51 -95 -80 -148 -112 -205 -30 -54 -104 -191
-127 -235 -12 -22 -23 -42 -26 -45 -3 -3 -12 -18 -20 -35 -8 -16 -28 -52 -44
-80 -16 -27 -46 -81 -66 -120 -52 -98 -93 -173 -120 -220 -13 -22 -40 -71 -60
-110 -92 -173 -106 -196 -118 -183 -6 7 -25 58 -42 113 -17 55 -35 108 -40
117 -6 10 -10 25 -10 33 0 8 -4 23 -9 33 -5 9 -15 37 -22 62 -7 25 -16 49 -21
55 -4 5 -8 17 -8 27 0 10 -4 27 -10 38 -5 11 -14 29 -20 40 -5 11 -10 27 -10
35 0 8 -4 23 -9 33 -13 26 -31 86 -31 105 0 9 -4 17 -8 17 -4 0 -14 21 -21 47
-17 63 -50 162 -63 193 -18 42 -25 63 -38 110 -6 25 -16 53 -21 62 -5 10 -9
25 -9 33 0 8 -4 23 -9 33 -16 31 -28 65 -64 177 -48 148 -68 207 -78 227 -5
10 -9 24 -9 32 0 11 -21 69 -50 141 -5 11 -16 47 -25 80 -9 33 -29 96 -45 140
-66 188 -110 316 -135 398 -15 48 -32 87 -39 87 -6 0 -17 -15 -24 -32 -18 -43
-24 -58 -68 -153 -20 -44 -43 -98 -51 -120 -15 -40 -24 -62 -58 -140 -9 -22
-21 -49 -25 -60 -4 -11 -22 -51 -40 -90 -31 -67 -43 -95 -60 -140 -8 -20 -22
-54 -55 -130 -9 -22 -30 -69 -47 -105 -16 -36 -34 -75 -39 -87 -5 -13 -13 -33
-18 -45 -5 -13 -16 -39 -24 -58 -8 -19 -27 -63 -41 -98 -15 -34 -40 -92 -56
-128 -17 -35 -30 -67 -30 -69 0 -2 -14 -35 -31 -72 -17 -38 -45 -102 -61 -143
-16 -41 -36 -88 -43 -105 -52 -113 -135 -307 -135 -314 0 -5 -8 -26 -19 -48
-10 -21 -29 -60 -41 -88 -12 -27 -26 -58 -31 -67 -5 -10 -9 -25 -9 -33 0 -8
-4 -15 -10 -15 -5 0 -10 -6 -10 -13 0 -8 -6 -27 -14 -43 -25 -52 -44 -98 -58
-139 -7 -22 -18 -46 -25 -52 -9 -10 -82 -13 -298 -13 l-285 0 -12 28 c-6 15
-14 44 -19 65 -5 20 -13 55 -19 77 -5 22 -14 57 -19 78 -5 20 -15 55 -21 77
-6 22 -20 76 -30 120 -10 44 -28 114 -39 155 -43 162 -103 399 -123 480 -11
47 -35 141 -54 210 -33 123 -57 219 -128 510 -20 80 -41 163 -47 185 -7 22
-16 56 -21 75 -6 19 -14 49 -19 66 -5 17 -9 38 -9 47 0 19 -21 67 -29 67 -9 0
-34 -64 -65 -165 -16 -49 -32 -99 -37 -110 -4 -11 -26 -76 -49 -145 -22 -69
-45 -133 -50 -142 -6 -10 -10 -27 -10 -38 0 -11 -4 -20 -10 -20 -5 0 -10 -13
-10 -29 0 -17 -4 -33 -10 -36 -5 -3 -10 -17 -10 -30 0 -13 -4 -27 -10 -30 -5
-3 -10 -17 -10 -30 0 -13 -4 -27 -10 -30 -5 -3 -10 -16 -10 -29 0 -12 -4 -26
-8 -31 -5 -6 -23 -57 -42 -115 -18 -58 -37 -109 -42 -114 -4 -6 -8 -18 -8 -28
0 -10 -4 -26 -9 -36 -5 -9 -14 -35 -20 -57 -7 -22 -16 -49 -21 -60 -5 -11 -25
-69 -44 -130 -44 -138 -210 -633 -235 -700 -37 -101 -49 -143 -44 -149 4 -3
1448 -6 3209 -6 2529 0 3209 3 3231 12 45 20 103 79 129 130 l24 47 0 2401 c0
1320 -3 2400 -7 2400 -5 0 -18 -13 -30 -28z"/>
</g>
</svg>
