<?xml version="1.0" encoding="UTF-8"?><svg id="Camada_1" xmlns="http://www.w3.org/2000/svg" viewBox="0 0 110 90"><path d="m93.67,25.15v54.85c0,2.75-2.25,5-5,5H10c-.4,0-.77-.05-1.15-.15-.52-.12-1-.33-1.45-.6-1.42-.88-2.4-2.45-2.4-4.25V25.15c0-2.75,2.25-5,5-5h78.67c1.53,0,2.9.7,3.8,1.77.38.45.68.95.87,1.5.23.53.33,1.13.33,1.73Z" style="fill:#001d7b; stroke-width:0px;"/><path d="m105,5.2l-.05.62v.02l-2,24.2-6.35-9.07-2.93,5.25-31.32,56.67-9.5-27.8-13.12,29.9h-7.28l-6.13-26.1-9.2,26.1h-7.12c-.4,0-.77-.05-1.15-.15-.52-.12-1-.33-1.45-.6-1.42-.88-2.4-2.45-2.4-4.25v-6.5l26-38.75,8.9,22.17,17.63-31.88,8.78,23.23,22.07-28.12,2.95-3.75-9.05-1.67,21.1-9.45.08-.03.55-.25,1,.2Z" style="fill:#a1cfee; stroke-width:0px;"/><polygon points="46.82 57.17 47.9 58.48 38.85 75.42 38.27 73.2 46.82 57.17" style="fill:#fff; stroke-width:0px;"/><polygon points="47.9 58.48 55.42 44.35 48.02 58.63 47.9 58.48" style="fill:#ebec52; stroke-width:0px;"/><polygon points="28.55 48.2 17.85 68.1 17.85 64.77 27.87 46.1 28.55 48.2" style="fill:#fff; stroke-width:0px;"/><polygon points="28.9 44.17 33.87 59.6 32.6 60.75 28.55 48.2 27.87 46.1 28.9 44.17" style="fill:#ebec52; stroke-width:0px;"/><polygon points="79.35 41.82 80.68 42.68 64.23 67.65 64 67.05 55.55 44.12 56.52 42.25 64.62 64.17 79.35 41.82" style="fill:#fff; stroke-width:0px;"/><polygon points="105 5.2 104.95 5.83 104.95 5.85 95.18 20.67 93.85 19.82 103.45 5.25 104 5 105 5.2" style="fill:#85b06f; stroke-width:0px;"/><path d="m17.85,64.77v3.33l-5.92,11.02-3.08,5.73c-.52-.12-1-.33-1.45-.6l2.75-5.13,7.7-14.35Z" style="fill:#85b06f; stroke-width:0px;"/><polygon points="38.85 75.42 37.9 77.2 32.6 60.75 33.87 59.6 38.27 73.2 38.85 75.42" style="fill:#fff; stroke-width:0px;"/><polygon points="56.52 42.25 55.55 44.12 55.42 44.35 47.9 58.48 46.82 57.17 55.8 40.33 56.52 42.25" style="fill:#ebec52; stroke-width:0px;"/><polygon points="95.18 20.67 93.67 22.92 80.68 42.68 79.35 41.82 93.85 19.82 95.18 20.67" style="fill:#ebec52; stroke-width:0px;"/></svg>