<?xml version="1.0" encoding="UTF-8"?><svg id="Camada_1" xmlns="http://www.w3.org/2000/svg" viewBox="0 0 216 40"><path d="m17.55,19.96l-8.55,15.95s-.02,0-.04-.01c-.02,0-.03,0-.04-.02-.12-.04-.23-.11-.33-.18-.06-.05-.11-.1-.17-.16-.05-.05-.1-.11-.14-.17-.04-.04-.07-.1-.1-.16-.02-.04-.04-.08-.06-.12-.05-.12-.09-.25-.1-.38-.02-.08-.02-.14-.02-.22V11.57c0-.83.68-1.51,1.5-1.51h31.85l1.18-1.5-3.62-.67,8.69-3.89h0s-4.41,6.69-4.41,6.69l-11.35,17.23-3.52-9.51-7.02,13.17-3.75-11.62Z" style="fill:#fff; stroke-width:0px;"/><path d="m48,4.08l-.82,9.94-2.54-3.63-1.17,2.1v22c0,.84-.67,1.51-1.5,1.51H9.38l8.09-15.07,3.74,11.61,7.05-13.21,3.48,9.43,11.65-17.68,4.61-7Z" style="fill:#fff; stroke-width:0px;"/><polygon points="18.98 36 12.85 36 16.53 25.56 18.98 36" style="fill:#001d7b; stroke-width:0px;"/><path d="m41.35,10.06l-8.83,11.25-3.51-9.29-7.05,12.75-3.56-8.87-10.4,15.5V11.57c0-.83.68-1.51,1.5-1.51h31.85Z" style="fill:#001d7b; stroke-width:0px;"/><path d="m43.47,12.49v22c0,.84-.67,1.51-1.5,1.51h-20.08l5.25-11.96,3.8,11.12,12.53-22.67Z" style="fill:#001d7b; stroke-width:0px;"/><polygon points="48 4.08 47.18 14.02 44.64 10.39 43.47 12.49 30.94 35.16 27.14 24.04 21.89 36 18.98 36 16.53 25.56 12.85 36 9.38 36 17.47 20.93 21.21 32.54 28.26 19.33 31.74 28.76 43.39 11.08 48 4.08" style="fill:#a1cfee; stroke-width:0px;"/><path d="m47.6,4h0s-4.41,6.69-4.41,6.69l-11.35,17.23-3.52-9.51-7.02,13.17-3.75-11.62-8.55,15.95s-.02,0-.04-.01c-.02,0-.03,0-.04-.02-.12-.04-.23-.11-.33-.18-.06-.05-.11-.1-.17-.16-.05-.05-.1-.11-.14-.17-.04-.04-.07-.1-.1-.16-.02-.04-.04-.08-.06-.12-.05-.12-.09-.25-.1-.38-.02-.08-.02-.14-.02-.22v-3.09l10.4-15.5,3.56,8.87,7.05-12.75,3.51,9.29,8.83-11.25,1.18-1.5-3.62-.67,8.69-3.89Z" style="fill:#a1cfee; stroke-width:0px;"/><path d="m75.66,24.77c.1-2.42.22-5.35.47-7.89h-.08c-.81,2.28-1.82,4.82-2.86,7.19l-3.44,8.14h-2.65l-1.8-8.02c-.52-2.4-.96-4.96-1.26-7.3h-.06c-.3,2.45-.67,5.43-1.03,8l-1.08,7.55h-3.2l2.9-18.78h4.51l1.79,7.55c.48,2.2.87,4.43,1.16,6.52h.08c.68-2.03,1.52-4.35,2.44-6.55l3.25-7.52h4.46l-.56,18.78h-3.34l.31-7.66Z" style="fill:#838383; stroke-width:0px;"/><path d="m86.25,27.11l-2.08,5.32h-3.54l7.66-18.78h4.37l4.46,18.78h-3.68l-1.23-5.32h-5.96Zm5.6-2.59l-1.07-4.62c-.26-1.14-.46-2.42-.64-3.51h-.06c-.37,1.09-.77,2.4-1.2,3.51l-1.85,4.62h4.82Z" style="fill:#838383; stroke-width:0px;"/><path d="m99.74,32.43l1.64-18.78h3.9l4.14,8.05c1.07,2.09,1.97,4.26,2.65,6.3h.06c0-2.51.13-4.93.38-7.8l.57-6.55h3.18l-1.64,18.78h-3.54l-4.18-8.25c-1.02-2.06-2.07-4.38-2.8-6.49l-.09.03c-.07,2.42-.26,4.9-.53,8l-.59,6.71h-3.15Z" style="fill:#838383; stroke-width:0px;"/><path d="m122.81,27.11l-2.08,5.32h-3.54l7.66-18.78h4.37l4.46,18.78h-3.68l-1.23-5.32h-5.96Zm5.6-2.59l-1.07-4.62c-.26-1.14-.46-2.42-.64-3.51h-.06c-.37,1.09-.77,2.4-1.2,3.51l-1.85,4.62h4.82Z" style="fill:#838383; stroke-width:0px;"/><path d="m136.3,32.43l1.64-18.78h3.9l4.14,8.05c1.07,2.09,1.97,4.26,2.65,6.3h.06c0-2.51.13-4.93.38-7.8l.57-6.55h3.18l-1.64,18.78h-3.54l-4.18-8.25c-1.02-2.06-2.07-4.38-2.8-6.49l-.09.03c-.07,2.42-.26,4.9-.53,8l-.59,6.71h-3.15Z" style="fill:#838383; stroke-width:0px;"/><path d="m168.65,31.87c-.84.42-2.66.84-4.92.84-5.96,0-9.26-3.73-8.76-9.45.54-6.18,5.16-9.92,10.9-9.92,2.26,0,3.83.47,4.5.84l-.99,2.73c-.86-.39-2.05-.72-3.61-.72-3.82,0-6.79,2.4-7.18,6.91-.36,4.12,1.83,6.77,5.95,6.77,1.39,0,2.87-.28,3.79-.7l.32,2.7Z" style="fill:#838383; stroke-width:0px;"/><path d="m176.6,13.65l-1.64,18.78h-3.43l1.64-18.78h3.43Z" style="fill:#838383; stroke-width:0px;"/><path d="m183.11,27.11l-2.08,5.32h-3.54l7.66-18.78h4.37l4.46,18.78h-3.68l-1.23-5.32h-5.96Zm5.6-2.59l-1.07-4.62c-.26-1.14-.46-2.42-.64-3.51h-.06c-.37,1.09-.77,2.4-1.2,3.51l-1.85,4.62h4.82Z" style="fill:#838383; stroke-width:0px;"/><path d="m198.25,13.65h3.43l-1.39,15.91h7.72l-.25,2.87h-11.14l1.64-18.78Z" style="fill:#838383; stroke-width:0px;"/><path d="m47.59,4.02-3.94,5.97l-.47.72-5.33,8.09.32.2,5.21-7.9.59-.9-.32-.21Z" style="fill:#ebec52; stroke-width:0px;"/><polygon points="47.98 4.1 43.96 10.2 43.64 9.99 47.58 4.03 47.58 4.02 47.98 4.1" style="fill:#85b06f; stroke-width:0px;"/><polygon points="38.16 19 31.72 28.78 28.25 19.36 28.47 18.89 31.82 27.94 37.84 18.8 38.16 19" style="fill:#fff; opacity:.75; stroke-width:0px;"/><polygon points="25.07 25.28 21.19 32.56 19.14 26.21 19.45 25.93 21.28 31.6 24.82 24.97 25.07 25.28" style="fill:#fff; opacity:.75; stroke-width:0px;"/><polygon points="17.55 21.26 17.45 20.95 13.13 29.01 13.05 28.33 17.31 20.38 17.55 21.26" style="fill:#fff; opacity:.75; stroke-width:0px;"/><polygon points="13.13 29.01 9.36 36.02 8.98 35.93 13.05 28.33 13.13 29.01" style="fill:#85b06f; stroke-width:0px;"/><polygon points="19.45 25.93 19.14 26.21 17.55 21.26 17.31 20.38 17.53 19.98 19.45 25.93" style="fill:#ebec52; stroke-width:0px;"/><polygon points="28.47 18.89 28.25 19.36 28.24 19.35 25.07 25.28 24.82 24.97 28.3 18.43 28.47 18.89" style="fill:#ebec52; stroke-width:0px;"/></svg>