<svg width="48" height="48" viewBox="0 0 48 48" fill="none" xmlns="http://www.w3.org/2000/svg">
<g id="stream_apps">
<mask id="mask0_174_42" style="mask-type:alpha" maskUnits="userSpaceOnUse" x="0" y="0" width="48" height="48">
<rect id="Bounding box" width="48" height="48" fill="#D9D9D9"/>
</mask>
<g mask="url(#mask0_174_42)">
<path id="stream_apps_2" d="M32 30L29.7 32.3C29.3667 32.6333 29 32.7167 28.6 32.55C28.2 32.3833 28 32.0667 28 31.6V18C28 17.4333 28.1917 16.9583 28.575 16.575C28.9583 16.1917 29.4333 16 30 16H44C44.5667 16 45.0417 16.1917 45.425 16.575C45.8083 16.9583 46 17.4333 46 18V28C46 28.5667 45.8083 29.0417 45.425 29.425C45.0417 29.8083 44.5667 30 44 30H32ZM14 46C12.9 46 11.9583 45.6083 11.175 44.825C10.3917 44.0417 10 43.1 10 42V6C10 4.9 10.3917 3.95833 11.175 3.175C11.9583 2.39167 12.9 2 14 2H34C35.1 2 36.0417 2.39167 36.825 3.175C37.6083 3.95833 38 4.9 38 6V14H34V12H14V36H34V34H38V42C38 43.1 37.6083 44.0417 36.825 44.825C36.0417 45.6083 35.1 46 34 46H14Z" fill="#3E885B"/>
</g>
</g>
</svg>
