<svg width="48" height="48" viewBox="0 0 48 48" fill="none" xmlns="http://www.w3.org/2000/svg">
<g id="new_releases">
<mask id="mask0_174_60" style="mask-type:alpha" maskUnits="userSpaceOnUse" x="0" y="0" width="48" height="48">
<rect id="Bounding box" width="48" height="48" fill="#D9D9D9"/>
</mask>
<g mask="url(#mask0_174_60)">
<path id="new_releases_2" d="M21.9 25.4L19 22.55C18.6333 22.1833 18.175 22 17.625 22C17.075 22 16.6 22.2 16.2 22.6C15.8333 22.9667 15.65 23.4333 15.65 24C15.65 24.5667 15.8333 25.0333 16.2 25.4L20.5 29.7C20.9 30.1 21.3667 30.3 21.9 30.3C22.4333 30.3 22.9 30.1 23.3 29.7L31.8 21.2C32.2 20.8 32.3917 20.3333 32.375 19.8C32.3583 19.2667 32.1667 18.8 31.8 18.4C31.4 18 30.925 17.7917 30.375 17.775C29.825 17.7583 29.35 17.95 28.95 18.35L21.9 25.4ZM16.3 43.5L13.4 38.6L7.89999 37.4C7.39999 37.3 6.99999 37.0417 6.69999 36.625C6.39999 36.2083 6.28333 35.75 6.34999 35.25L6.89999 29.6L3.14999 25.3C2.81666 24.9333 2.64999 24.5 2.64999 24C2.64999 23.5 2.81666 23.0667 3.14999 22.7L6.89999 18.4L6.34999 12.75C6.28333 12.25 6.39999 11.7917 6.69999 11.375C6.99999 10.9583 7.39999 10.7 7.89999 10.6L13.4 9.39999L16.3 4.49999C16.5667 4.06666 16.9333 3.77499 17.4 3.62499C17.8667 3.47499 18.3333 3.49999 18.8 3.69999L24 5.89999L29.2 3.69999C29.6667 3.49999 30.1333 3.47499 30.6 3.62499C31.0667 3.77499 31.4333 4.06666 31.7 4.49999L34.6 9.39999L40.1 10.6C40.6 10.7 41 10.9583 41.3 11.375C41.6 11.7917 41.7167 12.25 41.65 12.75L41.1 18.4L44.85 22.7C45.1833 23.0667 45.35 23.5 45.35 24C45.35 24.5 45.1833 24.9333 44.85 25.3L41.1 29.6L41.65 35.25C41.7167 35.75 41.6 36.2083 41.3 36.625C41 37.0417 40.6 37.3 40.1 37.4L34.6 38.6L31.7 43.5C31.4333 43.9333 31.0667 44.225 30.6 44.375C30.1333 44.525 29.6667 44.5 29.2 44.3L24 42.1L18.8 44.3C18.3333 44.5 17.8667 44.525 17.4 44.375C16.9333 44.225 16.5667 43.9333 16.3 43.5Z" fill="#3E885B"/>
</g>
</g>
</svg>
