<svg width="40" height="40" viewBox="0 0 40 40" fill="none" xmlns="http://www.w3.org/2000/svg">
<path id="Vector" d="M40 4.81181C40 2.13456 37.8293 0 35.1882 0H26.0711C26.0711 0 25.7454 0 25.5646 0H15.0726C12.5039 0 10.0437 1.01301 8.23479 2.82197L0.709541 10.3472C-0.809979 11.8667 0.275397 14.4716 2.40996 14.4716H15.8686C21.1869 14.4716 25.5284 18.7769 25.5284 24.1314V37.59C25.5284 39.7246 28.1333 40.81 29.6528 39.2905L37.178 31.7652C38.987 29.9563 40 27.4961 40 24.9274V14.4354C40 14.4354 40 14.1098 40 13.9289V4.81181Z" fill="#FF9500"/>
</svg>
